<svg id="Group_233" data-name="Group 233" xmlns="http://www.w3.org/2000/svg" width="22.647" height="22.647" viewBox="0 0 22.647 22.647">
  <path id="Path_109" data-name="Path 109" d="M222.045,139.141c3.023,0,3.381.012,4.576.066a6.273,6.273,0,0,1,2.1.391,3.742,3.742,0,0,1,2.149,2.149,6.273,6.273,0,0,1,.391,2.1c.054,1.195.066,1.553.066,4.576s-.012,3.381-.066,4.575a6.275,6.275,0,0,1-.391,2.1,3.742,3.742,0,0,1-2.149,2.149,6.253,6.253,0,0,1-2.1.39c-1.195.054-1.552.066-4.576.066s-3.381-.012-4.575-.066a6.261,6.261,0,0,1-2.1-.39,3.75,3.75,0,0,1-2.149-2.149,6.254,6.254,0,0,1-.39-2.1c-.054-1.194-.066-1.552-.066-4.575s.012-3.381.066-4.576a6.253,6.253,0,0,1,.39-2.1,3.751,3.751,0,0,1,2.149-2.149,6.282,6.282,0,0,1,2.1-.391c1.194-.054,1.552-.066,4.575-.066m0-2.04c-3.075,0-3.461.014-4.668.068a8.325,8.325,0,0,0-2.749.526,5.79,5.79,0,0,0-3.311,3.312,8.291,8.291,0,0,0-.526,2.749c-.055,1.208-.068,1.593-.068,4.668s.013,3.461.068,4.668a8.292,8.292,0,0,0,.526,2.749,5.791,5.791,0,0,0,3.311,3.312,8.353,8.353,0,0,0,2.749.526c1.208.054,1.593.067,4.668.067s3.461-.013,4.668-.067a8.347,8.347,0,0,0,2.749-.526,5.8,5.8,0,0,0,3.312-3.312,8.319,8.319,0,0,0,.526-2.749c.055-1.208.068-1.593.068-4.668s-.013-3.461-.068-4.668a8.319,8.319,0,0,0-.526-2.749,5.8,5.8,0,0,0-3.312-3.312,8.319,8.319,0,0,0-2.749-.526c-1.208-.054-1.593-.068-4.668-.068" transform="translate(-210.722 -137.101)" fill="#fff"/>
  <path id="Path_110" data-name="Path 110" d="M221.612,142.178a5.814,5.814,0,1,0,5.814,5.814,5.815,5.815,0,0,0-5.814-5.814m0,9.589a3.774,3.774,0,1,1,3.774-3.774,3.774,3.774,0,0,1-3.774,3.774" transform="translate(-210.29 -136.669)" fill="#fff"/>
  <path id="Path_111" data-name="Path 111" d="M228.191,142.073a1.359,1.359,0,1,1-1.359-1.359,1.359,1.359,0,0,1,1.359,1.359" transform="translate(-209.465 -136.793)" fill="#fff"/>
</svg>
