<svg xmlns="http://www.w3.org/2000/svg" width="142.601" height="142.601" viewBox="0 0 142.601 142.601">
  <g id="vuesax_outline_chart" data-name="vuesax/outline/chart" transform="translate(-444 250.601) rotate(-90)">
    <g id="chart" transform="translate(108 444)">
      <path id="Vector" d="M63.873,127.746A63.927,63.927,0,0,1,0,63.873c0-14.022,12.893-38.5,12.893-38.5l7.13,5.407S8.913,51.812,8.913,63.873a54.961,54.961,0,0,0,109.921,0c0-30.3-54.961-54.961-54.961-54.961V0s63.873,28.639,63.873,63.873A63.927,63.927,0,0,1,63.873,127.746Z" transform="translate(7.427 7.427)" fill="#f29a38"/>
      <path id="Vector-2" data-name="Vector" d="M46.048,92.1C20.677,92.1,0,46.048,0,46.048H8.913S25.549,83.184,46.048,83.184A37.149,37.149,0,0,0,83.184,46.048c0-20.5-37.136-37.136-37.136-37.136V0S92.1,20.677,92.1,46.048A46.126,46.126,0,0,1,46.048,92.1Z" transform="translate(25.252 25.252)" fill="#f29a38"/>
      <path id="Vector-3" data-name="Vector" d="M4.456,56.446V47.534s19.31-8.675,19.31-19.31S4.456,8.913,4.456,8.913V0S32.679,12.656,32.679,28.223,4.456,56.446,4.456,56.446Z" transform="translate(66.844 43.077)" fill="#f29a38"/>
      <path id="Vector-4" data-name="Vector" d="M0,0H142.6V142.6H0Z" fill="none" opacity="0"/>
    </g>
  </g>
</svg>
